<svg width="10" height="16" viewBox="0 0 10 16" fill="none" xmlns="http://www.w3.org/2000/svg">
<path d="M9.10928 0.20396H7.0619C6.54744 0.175073 6.03269 0.255881 5.55244 0.440967C5.0722 0.626053 4.63762 0.911102 4.27803 1.27685C3.91844 1.64259 3.64223 2.08053 3.46801 2.5611C3.29379 3.04168 3.22563 3.55372 3.26814 4.06262V5.84216H1.2051C1.1195 5.84216 1.03739 5.87585 0.976856 5.93584C0.916325 5.99583 0.882324 6.07716 0.882324 6.16199V8.74001C0.882643 8.82463 0.916801 8.9057 0.977297 8.96543C1.03779 9.02516 1.1197 9.05867 1.2051 9.05867H3.26814V15.5634C3.26798 15.6054 3.27623 15.6471 3.2924 15.686C3.30856 15.7249 3.33234 15.7602 3.36234 15.7899C3.39235 15.8196 3.42797 15.8432 3.4672 15.8592C3.50643 15.8752 3.54848 15.8834 3.59092 15.8833H6.28267C6.36828 15.8833 6.45035 15.8496 6.51088 15.7896C6.57141 15.7296 6.60541 15.6482 6.60541 15.5634V9.05867H9.01413C9.09952 9.05867 9.18147 9.02516 9.24196 8.96543C9.30246 8.9057 9.33658 8.82463 9.3369 8.74001V6.16199C9.3369 6.07716 9.3029 5.99583 9.24237 5.93584C9.18184 5.87585 9.09973 5.84216 9.01413 5.84216H6.60541V4.33354C6.60541 3.60907 6.78005 3.24025 7.7327 3.24025H9.1141C9.19949 3.24025 9.2814 3.20674 9.3419 3.14701C9.4024 3.08728 9.43655 3.00621 9.43687 2.92158V0.528565C9.43655 0.443829 9.40243 0.362658 9.34197 0.30274C9.28151 0.242822 9.1996 0.209046 9.1141 0.208731L9.10928 0.20396Z" fill="white"/>
</svg>
