<svg width="13" height="13" viewBox="0 0 13 13" fill="none" xmlns="http://www.w3.org/2000/svg">
<path d="M3.11894 3.49008e-05C2.29552 3.49008e-05 1.60309 0.573526 1.39498 1.34258H0.466356C0.342608 1.34206 0.223734 1.39163 0.136166 1.48008C0.0486922 1.56865 -0.000224788 1.68875 0.000189111 1.81388C0.000707307 1.93849 0.05004 2.05765 0.137513 2.14536C0.224883 2.23308 0.34324 2.28213 0.466377 2.28161H1.39325C1.59991 3.05275 2.29398 3.62877 3.11897 3.62877C3.93565 3.62877 4.62394 3.06397 4.83837 2.30457L12.5366 2.28162H12.5365C12.6598 2.28141 12.7777 2.23163 12.8646 2.14349C12.9515 2.05524 13.0002 1.93566 13 1.81115C12.9997 1.68695 12.9509 1.56789 12.864 1.48006C12.7771 1.39224 12.6594 1.34277 12.5365 1.34256L4.85099 1.36551C4.65096 0.584626 3.95076 0 3.11896 0L3.11894 3.49008e-05ZM3.11894 0.939085C3.60273 0.939085 3.98498 1.32477 3.98498 1.81388C3.98498 2.30309 3.60276 2.68963 3.11894 2.68963C2.63513 2.68963 2.25387 2.30312 2.25387 1.81388C2.25387 1.32463 2.63516 0.939085 3.11894 0.939085ZM8.07936 4.53752C7.24225 4.53752 6.5378 5.12118 6.33 5.90387H0.46617C0.342839 5.90345 0.224376 5.9526 0.137015 6.04043C0.0495412 6.12836 0.000313732 6.24784 6.5477e-07 6.37256C-0.00020664 6.49748 0.0488143 6.61748 0.136391 6.70573C0.223864 6.79408 0.342531 6.84344 0.466184 6.84292H6.33081C6.53924 7.62539 7.24285 8.2102 8.07922 8.2102C8.91559 8.2102 9.61922 7.62539 9.82762 6.84292H12.5363C12.6595 6.84271 12.7774 6.79303 12.8644 6.70479C12.9512 6.61654 13 6.49706 12.9998 6.37255C12.9994 6.24836 12.9506 6.1293 12.8638 6.04147C12.7768 5.95364 12.6592 5.90418 12.5363 5.90386H9.82841C9.62061 5.12118 8.91616 4.53752 8.07905 4.53752L8.07936 4.53752ZM8.07936 5.47657C8.57559 5.47657 8.96808 5.87073 8.96808 6.37256C8.96808 6.87439 8.57559 7.27126 8.07936 7.27126C7.58314 7.27126 7.19065 6.87436 7.19065 6.37256C7.19065 5.87076 7.58314 5.47657 8.07936 5.47657ZM4.47101 9.32453C3.63494 9.32453 2.93041 9.90881 2.72165 10.6909H0.466224C0.342476 10.6905 0.223602 10.7399 0.136033 10.8285C0.0485597 10.9169 -0.000357375 11.0371 5.65235e-05 11.1623C0.00057472 11.2868 0.0499074 11.406 0.137381 11.4938C0.224751 11.5815 0.343107 11.6304 0.466245 11.6299H2.72075C2.92813 12.414 3.6335 13 4.47093 13C5.30844 13 6.01289 12.4139 6.22029 11.6299H12.5365C12.6592 11.6297 12.7768 11.5804 12.8636 11.4927C12.9504 11.4051 12.9995 11.2864 13 11.1623C13.0004 11.0376 12.9519 10.9179 12.8649 10.8294C12.778 10.741 12.6598 10.6912 12.5365 10.6909H6.21949C6.01076 9.90891 5.30713 9.32452 4.47108 9.32452L4.47101 9.32453ZM4.47101 10.2636C4.96724 10.2636 5.35973 10.6605 5.35973 11.1623C5.35973 11.6641 4.96724 12.061 4.47101 12.061C3.97479 12.061 3.5823 11.6641 3.5823 11.1623C3.5823 10.6605 3.97479 10.2636 4.47101 10.2636Z" fill="#0F1011"/>
</svg>
