<svg width="21" height="20" viewBox="0 0 21 20" fill="none" xmlns="http://www.w3.org/2000/svg">
<path d="M15.387 5.03011H15.396M5.97803 1H14.939C17.4135 1 19.4194 3.00483 19.4194 5.47791V14.4337C19.4194 16.9068 17.4135 18.9116 14.939 18.9116H5.97803C3.50353 18.9116 1.49756 16.9068 1.49756 14.4337V5.47791C1.49756 3.00483 3.50353 1 5.97803 1ZM14.0429 9.39159C14.1535 10.1369 14.0261 10.8982 13.6789 11.567C13.3316 12.2358 12.7822 12.7782 12.1088 13.1169C11.4353 13.4557 10.6722 13.5736 9.92782 13.4539C9.18347 13.3342 8.49584 12.9829 7.96274 12.4501C7.42963 11.9173 7.0782 11.2301 6.95842 10.4862C6.83864 9.74226 6.95662 8.97953 7.29558 8.30649C7.63454 7.63344 8.17721 7.08435 8.84642 6.73731C9.51562 6.39027 10.2773 6.26296 11.023 6.37349C11.7838 6.48623 12.488 6.8405 13.0318 7.38398C13.5756 7.92745 13.9301 8.63132 14.0429 9.39159Z" stroke="white" stroke-width="2" stroke-linecap="round" stroke-linejoin="round"/>
</svg>
