<svg width="14" height="14" viewBox="0 0 14 14" fill="none" xmlns="http://www.w3.org/2000/svg">
<path d="M4.22578 0.353518C4.11154 0.353518 4.00199 0.398898 3.92121 0.479675C3.84043 0.560452 3.79505 0.67001 3.79505 0.784246V2.44089H0.481757C0.417399 2.43592 0.352726 2.44493 0.292181 2.46732C0.231636 2.4897 0.176654 2.52493 0.13101 2.57057C0.0853656 2.61622 0.0501415 2.6712 0.0277565 2.73174C0.00537159 2.79229 -0.00364376 2.85696 0.00132964 2.92132V5.43942C0.0552209 5.91924 0.237556 6.37563 0.529118 6.76049C0.820679 7.14535 1.21067 7.44443 1.65798 7.6262C2.74754 8.15414 3.91788 8.49573 5.12037 8.63675V7.2783C5.12037 7.15967 5.1675 7.0459 5.25138 6.96202C5.33526 6.87813 5.44903 6.83101 5.56766 6.83101H8.4668C8.52547 6.82847 8.58401 6.83843 8.63853 6.86024C8.69305 6.88205 8.74232 6.9152 8.78305 6.9575C8.82379 6.9998 8.85506 7.05028 8.87479 7.10559C8.89453 7.1609 8.90228 7.21977 8.89753 7.2783V8.63675C10.0888 8.51596 11.2525 8.20265 12.3434 7.70903C12.7907 7.52726 13.1806 7.22818 13.4722 6.84332C13.7638 6.45846 13.9461 6.00207 14 5.52226V2.92132C14 2.80269 13.9529 2.68892 13.869 2.60504C13.7851 2.52115 13.6713 2.47403 13.5527 2.47403H10.2394V0.817379C10.244 0.758091 10.2362 0.698499 10.2166 0.642354C10.1971 0.58621 10.1661 0.534729 10.1256 0.491154C10.0851 0.44758 10.0361 0.412855 9.98154 0.389167C9.927 0.365479 9.86814 0.353341 9.80868 0.353518H4.22578ZM4.65651 1.23154H9.36139V2.47403H4.65651V1.23154ZM5.99839 7.70903V8.85212H8.03607V7.70903H5.99839ZM13.5693 7.85813C13.3156 8.05949 13.0439 8.23696 12.7575 8.38826C11.8184 8.84575 10.8114 9.14787 9.77555 9.28285C7.9468 9.6227 6.07109 9.6227 4.24235 9.28285C3.21182 9.14785 2.21021 8.84568 1.27695 8.38826C0.990595 8.23696 0.718851 8.05949 0.465191 7.85813V12.6127C0.460438 12.6712 0.468187 12.7301 0.487923 12.7854C0.507659 12.8407 0.538931 12.8912 0.579665 12.9335C0.620398 12.9758 0.669662 13.009 0.724186 13.0308C0.778711 13.0526 0.83725 13.0625 0.895919 13.06H13.1385C13.1965 13.06 13.2539 13.0484 13.3073 13.0257C13.3607 13.003 13.4089 12.9698 13.4491 12.928C13.4893 12.8863 13.5207 12.8368 13.5414 12.7826C13.562 12.7284 13.5715 12.6706 13.5693 12.6127V7.85813Z" fill="#0F1011"/>
</svg>
