<svg width="9" height="14" viewBox="0 0 9 14" fill="none" xmlns="http://www.w3.org/2000/svg">
<path d="M4.5 0.5C2.01472 0.5 0 2.51472 0 5C-2.4e-06 7.48528 4.5 14 4.5 14C4.5 14 9 7.48528 9 5C9 2.51472 6.98528 0.5 4.5 0.5ZM4.5 2.75C4.79548 2.75 5.08806 2.8082 5.36104 2.92127C5.63402 3.03434 5.88206 3.20007 6.09099 3.40901C6.29992 3.61794 6.46566 3.86598 6.57873 4.13897C6.6918 4.41195 6.75 4.70453 6.75 5C6.75 5.29548 6.6918 5.58805 6.57873 5.86104C6.46566 6.13402 6.29992 6.38206 6.09099 6.591C5.88206 6.79993 5.63402 6.96566 5.36104 7.07873C5.08806 7.19181 4.79548 7.25 4.5 7.25C4.20453 7.25 3.91194 7.19181 3.63896 7.07873C3.36598 6.96566 3.11794 6.79993 2.90901 6.591C2.70008 6.38206 2.53434 6.13402 2.42127 5.86104C2.3082 5.58805 2.25 5.29548 2.25 5C2.25 4.70453 2.3082 4.41195 2.42127 4.13897C2.53434 3.86598 2.70008 3.61794 2.90901 3.40901C3.11794 3.20007 3.36598 3.03434 3.63896 2.92127C3.91195 2.8082 4.20453 2.75 4.5 2.75Z" fill="#0F1011"/>
</svg>
