<svg width="108" height="28" viewBox="0 0 108 28" fill="none" xmlns="http://www.w3.org/2000/svg">
<path d="M0.52 27H4.858V17.946H11.014L15.406 27H20.32L15.532 17.172C17.008 16.512 18.106 15.51 18.826 14.166C19.546 12.822 19.906 11.274 19.906 9.522C19.906 7.374 19.366 5.544 18.286 4.032C17.218 2.508 15.556 1.572 13.3 1.224C12.964 1.164 12.598 1.128 12.202 1.116C11.806 1.092 11.482 1.08 11.23 1.08H0.52V27ZM4.858 13.896V5.148H11.05C11.29 5.148 11.56 5.16 11.86 5.184C12.16 5.208 12.436 5.25 12.688 5.31C13.408 5.49 13.972 5.814 14.38 6.282C14.8 6.738 15.094 7.254 15.262 7.83C15.442 8.406 15.532 8.97 15.532 9.522C15.532 10.074 15.442 10.638 15.262 11.214C15.094 11.79 14.8 12.306 14.38 12.762C13.972 13.218 13.408 13.536 12.688 13.716C12.436 13.788 12.16 13.836 11.86 13.86C11.56 13.884 11.29 13.896 11.05 13.896H4.858ZM33.1236 27.54C34.9956 27.54 36.7056 27.06 38.2536 26.1C39.8136 25.128 40.9656 23.76 41.7096 21.996L37.4256 20.7C36.5616 22.548 35.0436 23.472 32.8716 23.472C31.3956 23.472 30.2316 23.046 29.3796 22.194C28.5276 21.33 28.0176 20.094 27.8496 18.486H41.9256C42.0936 16.146 41.8356 14.118 41.1516 12.402C40.4676 10.686 39.4176 9.36 38.0016 8.424C36.5976 7.488 34.8876 7.02 32.8716 7.02C30.9636 7.02 29.2836 7.452 27.8316 8.316C26.3796 9.168 25.2456 10.38 24.4296 11.952C23.6136 13.524 23.2056 15.372 23.2056 17.496C23.2056 19.464 23.6196 21.204 24.4476 22.716C25.2876 24.228 26.4516 25.41 27.9396 26.262C29.4276 27.114 31.1556 27.54 33.1236 27.54ZM33.0516 10.818C34.3956 10.818 35.4276 11.172 36.1476 11.88C36.8796 12.576 37.3416 13.686 37.5336 15.21H27.9576C28.4736 12.282 30.1716 10.818 33.0516 10.818Z" fill="#215766"/>
<path d="M45.9419 27H50.2799V16.2H59.3879V11.88H50.2799V5.418H61.5479V1.08H45.9419V27ZM65.1456 4.608H69.4836V0.629999H65.1456V4.608ZM65.1456 27H69.4836V7.56H65.1456V27ZM83.7135 27.54C85.5855 27.54 87.2955 27.06 88.8435 26.1C90.4035 25.128 91.5555 23.76 92.2995 21.996L88.0155 20.7C87.1515 22.548 85.6335 23.472 83.4615 23.472C81.9855 23.472 80.8215 23.046 79.9695 22.194C79.1175 21.33 78.6075 20.094 78.4395 18.486H92.5155C92.6835 16.146 92.4255 14.118 91.7415 12.402C91.0575 10.686 90.0075 9.36 88.5915 8.424C87.1875 7.488 85.4775 7.02 83.4615 7.02C81.5535 7.02 79.8735 7.452 78.4215 8.316C76.9695 9.168 75.8355 10.38 75.0195 11.952C74.2035 13.524 73.7955 15.372 73.7955 17.496C73.7955 19.464 74.2095 21.204 75.0375 22.716C75.8775 24.228 77.0415 25.41 78.5295 26.262C80.0175 27.114 81.7455 27.54 83.7135 27.54ZM83.6415 10.818C84.9855 10.818 86.0175 11.172 86.7375 11.88C87.4695 12.576 87.9315 13.686 88.1235 15.21H78.5475C79.0635 12.282 80.7615 10.818 83.6415 10.818ZM96.5317 27H100.888V17.118C100.888 15.99 101.092 14.988 101.5 14.112C101.92 13.236 102.574 12.558 103.462 12.078C104.062 11.73 104.734 11.526 105.478 11.466C106.222 11.394 106.888 11.442 107.476 11.61V7.56C106.6 7.428 105.7 7.446 104.776 7.614C103.852 7.77 103.03 8.094 102.31 8.586C101.902 8.838 101.536 9.144 101.212 9.504C100.888 9.852 100.606 10.242 100.366 10.674V7.56H96.5317V27Z" fill="#1F5262"/>
</svg>
