<svg width="18" height="14" viewBox="0 0 18 14" fill="none" xmlns="http://www.w3.org/2000/svg">
<path d="M17.2286 1.71663C16.5915 1.99653 15.9156 2.1802 15.2235 2.26156C15.9522 1.82917 16.4977 1.14933 16.7586 0.348366C16.0726 0.750949 15.3225 1.03514 14.5404 1.18884C14.0142 0.633981 13.3181 0.266504 12.5599 0.14329C11.8017 0.0200758 11.0236 0.14801 10.3461 0.507277C9.66867 0.866543 9.12962 1.4371 8.81243 2.13063C8.49524 2.82416 8.4176 3.60197 8.59154 4.34364C7.2044 4.27391 5.84753 3.91603 4.60893 3.29322C3.37032 2.67041 2.27764 1.79656 1.40174 0.728358C0.955605 1.48991 0.818934 2.39127 1.01952 3.24912C1.22011 4.10698 1.74289 4.85692 2.48154 5.34641C1.92698 5.32829 1.38475 5.17949 0.899786 4.91232V4.95587C0.900082 5.75398 1.17851 6.5275 1.68799 7.14563C2.19746 7.76375 2.90672 8.18854 3.69582 8.34816C3.39587 8.42855 3.08652 8.46935 2.77579 8.46954C2.55493 8.46956 2.33461 8.44791 2.11805 8.40489C2.34089 9.09231 2.77502 9.6935 3.35969 10.1243C3.94436 10.5551 4.65031 10.794 5.37877 10.8076C4.14206 11.7686 2.61516 12.2896 1.04358 12.2867C0.765515 12.2864 0.48769 12.2705 0.211426 12.2392C1.71169 13.1928 3.4434 13.7285 5.22469 13.7901C7.00598 13.8516 8.77112 13.4367 10.3348 12.5889C11.8984 11.7411 13.2028 10.4917 14.1111 8.97194C15.0193 7.45216 15.4978 5.71807 15.4964 3.95177L15.4844 3.50447C16.1711 3.01818 16.763 2.41242 17.2313 1.71663H17.2286Z" fill="white"/>
</svg>
