<svg width="21" height="14" viewBox="0 0 21 14" fill="none" xmlns="http://www.w3.org/2000/svg">
<path d="M19.7625 1.27216C19.0544 0.437214 17.747 0.0976562 15.2476 0.0976562H6.17883C3.62575 0.0976562 2.29279 0.45983 1.58733 1.34938C0.899344 2.21629 0.899353 3.49202 0.899353 5.25913V8.63355C0.899353 12.0572 1.71632 13.7951 6.17883 13.7951H15.2476C17.4151 13.7951 18.615 13.4955 19.3917 12.7577C20.1684 12.02 20.5285 10.7695 20.5285 8.62957V5.26181C20.5285 3.39749 20.4747 2.11376 19.7625 1.27615V1.27216ZM13.5008 7.4071L9.38227 9.53777C9.28571 9.58802 9.17768 9.61271 9.06867 9.60941C8.95965 9.60611 8.85335 9.57491 8.76007 9.51891C8.66678 9.46291 8.58968 9.38397 8.53625 9.28975C8.48282 9.19552 8.45486 9.08922 8.4551 8.98113V4.7318C8.4551 4.62409 8.48312 4.5182 8.53641 4.42433C8.58971 4.33045 8.66648 4.25174 8.75937 4.19581C8.85226 4.13988 8.95813 4.1086 9.06676 4.10498C9.17539 4.10137 9.28312 4.12554 9.37958 4.17517L13.4981 6.29518C13.601 6.34811 13.6872 6.42802 13.7473 6.52617C13.8075 6.62433 13.8393 6.73696 13.8393 6.85181C13.8393 6.96666 13.8075 7.0793 13.7473 7.17745C13.6872 7.27561 13.601 7.35552 13.4981 7.40845L13.5008 7.4071Z" fill="white"/>
</svg>
